<svg xmlns="http://www.w3.org/2000/svg" width="1200" height="800" viewBox="0 0 1200 800" role="img" aria-label="Image unavailable">
  <defs>
    <linearGradient id="bg" x1="0" y1="0" x2="1" y2="1">
      <stop offset="0" stop-color="#0b1b2b"/>
      <stop offset="1" stop-color="#08131f"/>
    </linearGradient>
  </defs>
  <rect width="1200" height="800" fill="url(#bg)"/>
  <rect x="60" y="60" width="1080" height="680" fill="none" stroke="#d6b25e" stroke-width="6" opacity="0.75" rx="26"/>
  <g opacity="0.9">
    <circle cx="600" cy="320" r="120" fill="none" stroke="#ffffff" stroke-opacity="0.25" stroke-width="10"/>
    <path d="M520 445c35 40 85 60 80 105-5 45-60 80-120 80-60 0-115-35-120-80-5-45 45-65 80-105" fill="none" stroke="#ffffff" stroke-opacity="0.18" stroke-width="10" stroke-linecap="round"/>
    <path d="M480 250c25-35 65-55 120-55 55 0 95 20 120 55" fill="none" stroke="#d6b25e" stroke-width="8" stroke-linecap="round" opacity="0.65"/>
  </g>
  <text x="600" y="560" text-anchor="middle" fill="#ffffff" font-family="ui-serif, Georgia, Times New Roman, serif" font-size="44" opacity="0.92">Image unavailable</text>
  <text x="600" y="610" text-anchor="middle" fill="#ffffff" font-family="ui-sans-serif, system-ui, -apple-system, Segoe UI, Roboto, Helvetica, Arial, sans-serif" font-size="20" opacity="0.7">Showing a local placeholder instead</text>
</svg>
